<svg width="52" height="61" viewBox="0 0 52 61" fill="none" xmlns="http://www.w3.org/2000/svg">
<path d="M29.3382 45.1535V45.448L29.5958 45.5908L40.073 51.3999L40.3131 51.5331L40.5542 51.4019L51.2389 45.5928L51.5001 45.4508V45.1535V16.3154V16.0245L51.2472 15.8807L40.6663 9.86411L39.9191 9.43926V10.2988V18.39V18.6911L40.1852 18.8319L43.4461 20.5583V41.7566L41.1378 43.1245L37.1847 40.9181V8.22407V7.93809L36.9382 7.7931L26.3573 1.56903L26.1 1.41766L25.8446 1.5724L18.9982 5.72178L18.27 6.16312L19.0102 6.58402L29.3382 12.4568V45.1535Z" fill="#FAFAFA" stroke="black"/>
<path d="M0.5 44.9461V45.2369L0.752849 45.3807L11.3338 51.3973L12.0809 51.8222V50.9627V42.6639V42.3466L11.7938 42.2115L8.55394 40.6869V21.1628L12.2105 18.9688L14.8154 20.4449V53.0374V53.3233L15.0618 53.4683L25.6428 59.6924L25.9065 59.8476L26.1647 59.6833L33.0112 55.3264L33.7119 54.8805L32.9899 54.4699L22.6618 48.5971V16.1079V15.8185L22.4108 15.6743L11.9336 9.65772L11.6871 9.51612L11.4393 9.65563L0.754669 15.6722L0.5 15.8156V16.1079V44.9461Z" fill="#FAFAFA" stroke="black"/>
</svg>
