<svg width="52" height="73" viewBox="0 0 52 73" fill="none" xmlns="http://www.w3.org/2000/svg">
<g clip-path="url(#clip0_289_8910)">
<path d="M25.51 1.5H13.8445C10.7501 1.5 7.78254 2.72922 5.59451 4.91726C3.40647 7.10529 2.17725 10.0729 2.17725 13.1672C2.17725 16.2616 3.40647 19.2292 5.59451 21.4172C7.78254 23.6053 10.7501 24.8345 13.8445 24.8345H25.51V1.5Z" stroke="#FAFAFA" stroke-width="3"/>
<path d="M25.51 24.831H13.8445C10.7501 24.831 7.78254 26.0602 5.59451 28.2483C3.40647 30.4363 2.17725 33.4039 2.17725 36.4982C2.17725 39.5926 3.40647 42.5602 5.59451 44.7482C7.78254 46.9363 10.7501 48.1655 13.8445 48.1655H25.51V24.831Z" stroke="#FAFAFA" stroke-width="3"/>
<path d="M48.8437 36.5C48.8437 39.5943 47.6145 42.562 45.4265 44.75C43.2384 46.938 40.2708 48.1672 37.1765 48.1672C34.0821 48.1672 31.1145 46.938 28.9265 44.75C26.7384 42.562 25.5092 39.5943 25.5092 36.5C25.5092 33.4057 26.7384 30.438 28.9265 28.25C31.1145 26.062 34.0821 24.8327 37.1765 24.8327C40.2708 24.8327 43.2384 26.062 45.4265 28.25C47.6145 30.438 48.8437 33.4057 48.8437 36.5ZM13.8437 48.169H25.5092V59.8345C25.5085 62.1416 24.8238 64.3966 23.5415 66.3145C22.2593 68.2325 20.4371 69.7271 18.3055 70.6095C16.1738 71.4919 13.8284 71.7224 11.5658 71.2719C9.3031 70.8214 7.22484 69.7101 5.59374 68.0785C3.96264 66.4469 2.85195 64.3683 2.40212 62.1055C1.95229 59.8427 2.18351 57.4974 3.06655 55.366C3.94958 53.2346 5.44478 51.4129 7.36309 50.1312C9.28139 48.8496 11.5367 48.169 13.8437 48.169Z" stroke="#FAFAFA" stroke-width="3"/>
<path d="M25.5098 1.5H37.1753C40.2696 1.5 43.2372 2.72922 45.4253 4.91726C47.6133 7.10529 48.8425 10.0729 48.8425 13.1672C48.8425 16.2616 47.6133 19.2292 45.4253 21.4172C43.2372 23.6053 40.2696 24.8345 37.1753 24.8345H25.5098V1.5Z" stroke="#FAFAFA" stroke-width="3"/>
</g>
<defs>
<clipPath id="clip0_289_8910">
<rect width="51" height="73" fill="white" transform="translate(0.254883)"/>
</clipPath>
</defs>
</svg>
