<svg width="63" height="63" viewBox="0 0 63 63" fill="none" xmlns="http://www.w3.org/2000/svg">
<g clip-path="url(#clip0_522_466)">
<path d="M58.7409 47.851L58.8267 47.8167C58.5667 46.1897 57.8963 44.6735 56.5218 43.2706C55.174 41.8948 53.1877 40.667 50.3567 39.5161C49.9628 39.3321 49.5585 39.158 49.1759 38.9932C49.0795 38.9517 48.9845 38.9108 48.8914 38.8705C48.4102 38.6621 47.9714 38.4659 47.5792 38.2589C46.8038 37.8497 46.3734 37.4789 46.1819 37.0961C45.9825 36.352 46.0056 36.111 46.0756 35.8793L46.0852 35.8479L46.0926 35.8159C46.1987 35.3588 46.5126 35.0349 47.0147 34.8469C47.5382 34.6508 48.2069 34.6356 48.8044 34.814C49.5346 35.0397 50.2691 35.6188 50.7526 36.6457L51.2424 37.6858L52.2046 37.0567C53.8121 36.0058 54.4639 35.5796 55.1213 35.1621C55.5724 34.8755 56.026 34.593 56.7929 34.1155L57.654 33.5792L57.1054 32.7259C56.4001 31.6288 56.0001 31.074 55.4503 30.529C53.5607 28.4278 51.0535 27.4191 47.264 27.5051L47.2126 27.5063L47.1615 27.5128L45.3109 27.7464L45.2544 27.7535L45.199 27.767C43.275 28.2366 41.3787 29.2695 40.1843 30.73C38.473 32.6783 37.8975 35.3009 38.2224 37.7326C38.5467 40.1598 39.7843 42.5185 41.8616 43.9284C43.4681 45.1238 45.3876 45.9307 47.0045 46.6104C47.3093 46.7385 47.6033 46.862 47.8824 46.9829C48.8004 47.3802 49.546 47.7395 50.0955 48.1266C50.6277 48.5014 50.8712 48.8297 50.9596 49.1331C51.0754 49.7224 51.0099 50.1325 50.8825 50.4203C50.7531 50.7128 50.5217 50.9649 50.1658 51.1714C49.4275 51.5999 48.2482 51.769 46.9422 51.6156C46.0297 51.4074 45.3584 51.0843 44.7778 50.6254C44.1738 50.148 43.6229 49.4883 43 48.5445L42.4823 47.7602L41.6673 48.2282L36.8636 50.9871L36.0861 51.4336L36.4455 52.2551C36.9553 53.4204 37.5649 54.1039 38.2435 54.8647C38.4016 55.042 38.5634 55.2234 38.7286 55.4162L38.7521 55.4436L38.7775 55.4692C41.33 58.0452 45.6573 59.179 49.5471 58.7998C53.4366 58.4205 57.2891 56.4702 58.48 52.4245L58.4815 52.4196C58.5925 52.0765 59.1387 50.3882 58.7409 47.851ZM35.2563 29.0276L35.3328 27.9564H34.2589H28.3579H27.3579V28.9564C27.3579 31.4979 27.352 34.0318 27.3461 36.5681L27.3461 36.5702C27.3402 39.1067 27.3342 41.6456 27.3342 44.1945C27.3342 44.8683 27.3411 45.5142 27.3475 46.1276C27.357 47.0275 27.3657 47.8576 27.3512 48.6034C27.3391 49.2209 27.3112 49.7369 27.2593 50.141C27.2036 50.5754 27.133 50.7641 27.1061 50.8107L27.0868 50.8441L27.0701 50.8789C26.816 51.4094 26.3778 51.6593 25.8116 51.7511C25.2484 51.8425 24.6399 51.7548 24.234 51.6387C23.5014 51.2578 23.1037 50.7531 22.5404 49.8127L22.54 49.812C22.5028 49.75 22.4674 49.6891 22.4316 49.6276L22.4266 49.6189C22.3941 49.5629 22.3584 49.5016 22.3257 49.4475C22.2949 49.3968 22.2466 49.3187 22.191 49.246C22.1653 49.2124 22.1112 49.144 22.0332 49.0748C21.9935 49.0396 21.9251 48.9838 21.8302 48.933C21.739 48.8843 21.5712 48.812 21.3491 48.812H21.0657L20.8244 48.9607L16.0338 51.9139L15.2648 52.3879L15.6584 53.2009C16.5243 54.9894 17.8111 56.5779 19.5188 57.6044L19.5217 57.6061C22.0197 59.0961 25.305 59.5417 28.6714 58.7861L28.7008 58.7795L28.7297 58.7712C30.9727 58.1237 33.0095 56.762 34.094 54.5673C34.8539 53.1721 35.1332 51.657 35.2322 50.1198C35.3021 49.0354 35.2835 47.8729 35.265 46.7085C35.2576 46.2457 35.2502 45.7826 35.2484 45.324C35.2694 41.7304 35.2624 38.1325 35.2554 34.527C35.2519 32.733 35.2484 30.9371 35.2484 29.139L35.2563 29.0276ZM1 1H62V62H1V1Z" stroke="white" stroke-width="2"/>
</g>
<defs>
<clipPath id="clip0_522_466">
<rect width="63" height="63" fill="white"/>
</clipPath>
</defs>
</svg>
