<svg width="27" height="27" viewBox="0 0 27 27" fill="none" xmlns="http://www.w3.org/2000/svg">
<g clip-path="url(#clip0_420_225)">
<path d="M13.3333 18.6667C14.7478 18.6667 16.1044 18.1048 17.1046 17.1046C18.1048 16.1044 18.6667 14.7478 18.6667 13.3333C18.6667 11.9188 18.1048 10.5623 17.1046 9.5621C16.1044 8.5619 14.7478 8 13.3333 8V18.6667Z" fill="#FAFAFA"/>
<path fill-rule="evenodd" clip-rule="evenodd" d="M13.3333 0C5.96933 0 0 5.96933 0 13.3333C0 20.6973 5.96933 26.6667 13.3333 26.6667C20.6973 26.6667 26.6667 20.6973 26.6667 13.3333C26.6667 5.96933 20.6973 0 13.3333 0ZM13.3333 2.66667V8C11.9188 8 10.5623 8.5619 9.5621 9.5621C8.5619 10.5623 8 11.9188 8 13.3333C8 14.7478 8.5619 16.1044 9.5621 17.1046C10.5623 18.1048 11.9188 18.6667 13.3333 18.6667V24C16.1623 24 18.8754 22.8762 20.8758 20.8758C22.8762 18.8754 24 16.1623 24 13.3333C24 10.5044 22.8762 7.79125 20.8758 5.79086C18.8754 3.79047 16.1623 2.66667 13.3333 2.66667Z" fill="#FAFAFA"/>
</g>
<defs>
<clipPath id="clip0_420_225">
<rect width="27" height="27" fill="white"/>
</clipPath>
</defs>
</svg>
