<svg width="72" height="65" viewBox="0 0 72 65" fill="none" xmlns="http://www.w3.org/2000/svg">
<g clip-path="url(#clip0_289_8900)">
<path d="M35.5097 38.605C38.9601 38.605 41.7572 35.8079 41.7572 32.3575C41.7572 28.9071 38.9601 26.11 35.5097 26.11C32.0593 26.11 29.2622 28.9071 29.2622 32.3575C29.2622 35.8079 32.0593 38.605 35.5097 38.605Z" fill="#FAFAFA"/>
<path d="M18.0166 44.779L16.6341 44.4255C6.36511 41.832 0.474609 37.422 0.474609 32.3435C0.474609 27.2615 6.36861 22.855 16.6341 20.2615L18.0166 19.9115L18.4051 21.28C19.443 24.8629 20.7728 28.3548 22.3811 31.7205L22.6786 32.3435L22.3811 32.9665C20.7711 36.337 19.4376 39.83 18.4051 43.414L18.0166 44.779ZM15.9971 23.4465C8.19561 25.6445 3.40411 28.9975 3.40411 32.3435C3.40411 35.6825 8.19211 39.039 15.9971 41.2335C16.9526 38.1955 18.1076 35.224 19.4446 32.3435C18.0979 29.4582 16.9462 26.4859 15.9971 23.4465ZM52.9991 44.779L52.6141 43.407C51.5735 39.8234 50.2426 36.3305 48.6346 32.963L48.3371 32.3435L48.6346 31.717C50.2446 28.3535 51.5711 24.857 52.6141 21.273L52.9991 19.908L54.3816 20.258C64.6541 22.8515 70.5411 27.258 70.5411 32.3435C70.5411 37.4255 64.6506 41.832 54.3816 44.4255L52.9991 44.779ZM51.5641 32.3435C52.9641 35.3745 54.1296 38.3565 55.0186 41.2335C62.8236 39.039 67.6151 35.6825 67.6151 32.3435C67.6151 28.9975 62.8271 25.648 55.0186 23.4465C54.0641 26.4849 52.9101 29.457 51.5641 32.3435Z" fill="#FAFAFA"/>
<path d="M15.9762 23.4325L15.5912 22.0675C12.7002 11.8895 13.5752 4.59899 17.9957 2.058C22.3182 -0.444504 29.2727 2.513 36.5562 9.98549L37.5502 11.0075L36.5562 12.026C33.9693 14.7164 31.6049 17.6122 29.4862 20.685L29.0907 21.252L28.4047 21.308C24.6793 21.6006 20.9839 22.1964 17.3552 23.0895L15.9762 23.4325ZM21.5132 4.08099C20.7292 4.08099 20.0362 4.2525 19.4517 4.5885C16.5537 6.25799 16.0427 12.0715 18.0377 19.9185C21.1562 19.229 24.3027 18.7355 27.4737 18.459C29.3095 15.8552 31.3122 13.3731 33.4692 11.0285C28.9087 6.59399 24.6037 4.08099 21.5132 4.08099ZM49.5027 63.525C45.3447 63.525 40.0037 60.389 34.4597 54.698L33.4692 53.6795L34.4597 52.6645C37.0471 49.9698 39.4126 47.0705 41.5332 43.995L41.9252 43.435L42.6042 43.3685C46.331 43.0811 50.0278 42.4876 53.6572 41.594L55.0397 41.244L55.4282 42.6125C58.3052 52.7835 57.4337 60.0845 53.0202 62.6255C51.9486 63.2329 50.7344 63.5434 49.5027 63.525ZM37.5502 53.655C42.1072 58.0895 46.4157 60.606 49.5027 60.606C50.2902 60.606 50.9832 60.431 51.5642 60.0985C54.4657 58.4255 54.9802 52.6015 52.9782 44.7545C49.8632 45.4475 46.7132 45.9445 43.5352 46.221C41.7072 48.8289 39.7078 51.3124 37.5502 53.655Z" fill="#FAFAFA"/>
<path d="M55.0395 23.4325L53.657 23.086C50.0278 22.1901 46.331 21.5943 42.604 21.3045L41.925 21.245L41.533 20.678C39.4154 17.6036 37.0496 14.7076 34.4595 12.019L33.469 11.0005L34.4595 9.98551C41.7395 2.51651 48.6905 -0.440994 53.0201 2.05801C57.437 4.60251 58.3155 11.893 55.428 22.0675L55.0395 23.4325ZM43.535 18.459C46.874 18.7565 50.038 19.257 52.978 19.9185C54.9765 12.0715 54.4655 6.25801 51.564 4.58501C48.68 2.91551 43.2515 5.47051 37.55 11.0285C39.706 13.3735 41.708 15.8515 43.535 18.459ZM21.513 63.525C20.2815 63.5426 19.0675 63.2321 17.9955 62.6255C13.575 60.0845 12.7 52.787 15.5875 42.6125L15.9655 41.244L17.348 41.594C20.722 42.4445 24.439 43.043 28.401 43.3685L29.08 43.435L29.4755 43.995C31.5895 47.068 33.9555 49.9695 36.5455 52.6645L37.5395 53.6795L36.5455 54.698C31.005 60.3925 25.664 63.525 21.513 63.525ZM18.0375 44.758C16.0425 52.605 16.5535 58.429 19.4515 60.102C22.339 61.747 27.75 59.2095 33.469 53.655C31.3129 51.3096 29.3102 48.8277 27.4735 46.2245C24.2994 45.9438 21.1472 45.4539 18.0375 44.758Z" fill="#FAFAFA"/>
<path d="M35.5098 46.5955C33.1053 46.5955 30.6378 46.494 28.1598 46.2875L27.4738 46.228L27.0783 45.661C25.681 43.6516 24.3662 41.5861 23.1373 39.4695C21.9175 37.3472 20.7838 35.1766 19.7388 32.963L19.4448 32.3435L19.7388 31.717C20.7853 29.505 21.9158 27.335 23.1373 25.214C24.3518 23.128 25.6783 21.042 27.0783 19.019L27.4738 18.459L28.1598 18.396C33.0489 17.9865 37.9637 17.9865 42.8528 18.396L43.5318 18.4625L43.9273 19.0225C46.7266 23.0431 49.1852 27.2906 51.2773 31.7205L51.5678 32.347L51.2773 32.9665C49.1909 37.3995 46.7321 41.6474 43.9273 45.6645L43.5318 46.2315L42.8528 46.291C40.3818 46.4905 37.9108 46.5955 35.5098 46.5955ZM29.0908 43.4315C33.4133 43.757 37.6063 43.757 41.9253 43.4315C44.3364 39.9007 46.4798 36.1944 48.3373 32.3435C46.4863 28.4892 44.3427 24.7823 41.9253 21.2555C37.6535 20.9265 33.3627 20.9265 29.0908 21.2555C26.6714 24.781 24.5277 28.488 22.6788 32.3435C24.5404 36.1922 26.6836 39.8983 29.0908 43.4315Z" fill="#FAFAFA"/>
</g>
<defs>
<clipPath id="clip0_289_8900">
<rect width="71" height="64" fill="white" transform="translate(0.254883 0.5)"/>
</clipPath>
</defs>
</svg>
