<svg width="83" height="55" viewBox="0 0 83 55" fill="none" xmlns="http://www.w3.org/2000/svg">
<g clip-path="url(#clip0_289_8908)">
<path d="M41.5096 2.29999C31.0544 2.29999 24.5248 7.89999 21.9096 19.1C25.8296 13.5 30.4048 11.4 35.6296 12.8C38.6144 13.6008 40.7424 15.9192 43.1 18.484C46.9472 22.6616 51.3936 27.5 61.1096 27.5C71.5648 27.5 78.0944 21.9 80.7096 10.7C76.7896 16.3 72.2144 18.4 66.9896 17C64.0048 16.1992 61.8768 13.8808 59.5192 11.316C55.672 7.13839 51.2256 2.29999 41.5096 2.29999ZM21.9096 27.5C11.4544 27.5 4.92477 33.1 2.30957 44.3C6.22957 38.7 10.8048 36.6 16.0296 38C19.0144 38.8008 21.1424 41.1192 23.5 43.684C27.3472 47.8616 31.7936 52.7 41.5096 52.7C51.9648 52.7 58.4944 47.1 61.1096 35.9C57.1896 41.5 52.6144 43.6 47.3896 42.2C44.4048 41.3992 42.2768 39.0808 39.9192 36.516C36.072 32.3384 31.6256 27.5 21.9096 27.5Z" stroke="#FAFAFA" stroke-width="3" stroke-linejoin="round"/>
</g>
<defs>
<clipPath id="clip0_289_8908">
<rect width="82" height="55" fill="white" transform="translate(0.254883)"/>
</clipPath>
</defs>
</svg>
